<?xml version="1.0" encoding="UTF-8" standalone="no"?>
<!-- Created with Inkscape (http://www.inkscape.org/) -->

<svg
   width="76mm"
   height="65mm"
   viewBox="0 0 76 65"
   version="1.1"
   id="svg5"
   inkscape:version="1.3 (1:1.3+202307231459+0e150ed6c4)"
   sodipodi:docname="gf-light.svg"
   xmlns:inkscape="http://www.inkscape.org/namespaces/inkscape"
   xmlns:sodipodi="http://sodipodi.sourceforge.net/DTD/sodipodi-0.dtd"
   xmlns="http://www.w3.org/2000/svg"
   xmlns:svg="http://www.w3.org/2000/svg">
  <sodipodi:namedview
     id="namedview7"
     pagecolor="#ffffff"
     bordercolor="#666666"
     borderopacity="1.0"
     inkscape:pageshadow="2"
     inkscape:pageopacity="0.0"
     inkscape:pagecheckerboard="0"
     inkscape:document-units="mm"
     showgrid="false"
     inkscape:zoom="1.1326109"
     inkscape:cx="343.01277"
     inkscape:cy="501.05469"
     inkscape:window-width="2560"
     inkscape:window-height="1408"
     inkscape:window-x="0"
     inkscape:window-y="0"
     inkscape:window-maximized="1"
     inkscape:current-layer="layer1"
     inkscape:showpageshadow="2"
     inkscape:deskcolor="#d1d1d1" />
  <defs
     id="defs2" />
  <g
     inkscape:label="Ebene 1"
     inkscape:groupmode="layer"
     id="layer1">
    <path
       id="path1314"
       style="fill:#f8f8f8;stroke-width:0.999998;fill-opacity:1"
       d="m 6.6600278,1.5912619 c -0.633322,0.0267 -1.104984,0.24551 -1.37201,0.66714 -0.361407,0.57067 -0.662392,2.50524 -0.668692,4.29948 -0.0063,1.79423 -0.536861,5.2909801 -1.179256,7.7700701 -0.642395,2.47908 -0.97396,5.01363 -0.736388,5.63273 0.237569,0.6191 0.05629,1.57866 -0.403077,2.13217 -1.14214,1.37619 -0.143827,8.54057 1.190109,8.54057 0.676458,0 1.101228,1.47994 1.34307,4.68084 0.194519,2.57459 0.778084,6.1975 1.297078,8.05119 0.518996,1.8537 0.978617,6.23546 1.021127,9.73688 0.0738,6.07827 0.0053,6.35622 -1.51257,6.14794 -1.075449,-0.14758 -1.717759,0.27214 -1.985925,1.2976 -0.334383,1.27868 -0.181269,1.40061 0.978752,0.77979 2.108951,-1.12867 2.767684,-0.89983 3.27887,1.13689 0.445643,1.77559 2.6887252,2.7128 2.6887252,1.12344 0,-0.41193 0.453855,-0.74931 1.008724,-0.74931 0.554868,0 1.785826,-0.67371 2.735749,-1.49758 0.949923,-0.82386 2.169536,-1.4981 2.709913,-1.4981 1.689716,0 2.669799,-2.69901 1.371491,-3.77651 -1.698516,-1.40964 -4.393726,0.13593 -6.86263,3.93516 l -2.0866942,3.21169 -0.457854,-7.48947 c -0.251825,-4.11933 -0.998156,-10.52326 -1.658295,-14.23065 -1.401037,-7.86832 -1.44722,-9.38593 -0.790649,-26.02632 0.445329,-11.2865801 0.627253,-12.5454901 1.812809,-12.5454901 1.227055,0 5.3834502,2.52792 10.9254312,6.64456 3.194939,2.3732401 7.660773,2.2125701 17.503841,-0.62942 13.391084,-3.86639 19.317356,-2.88185 28.462346,4.7289101 7.937635,6.60595 7.933505,6.59852 4.681365,7.82846 -5.427345,2.0526 -9.154951,1.86603 -9.198919,-0.46044 -0.02074,-1.09683 -0.166386,-1.07156 -1.123448,0.19379 -0.604797,0.79961 -1.099674,1.81214 -1.099674,2.25051 0,1.43049 5.508016,2.94395 10.607106,2.91455 l 4.989875,-0.0284 -0.28887,3.81992 c -0.15895,2.10096 -0.44483,6.69919 -0.63562,10.2185 -0.35878,6.6177 -2.376724,13.50406 -5.092714,17.38085 -0.793629,1.13281 -1.110221,2.05982 -0.703832,2.05982 1.194186,0 3.605983,-4.48211 5.381586,-10.00146 1.17537,-3.65356 1.79215,-7.97171 2.13992,-14.97944 l 0.48834,-9.84591 -2.23501,-4.37183 c -1.629884,-3.18774 -3.257521,-5.07257 -6.008931,-6.95823 -2.075384,-1.42235 -5.376389,-3.7283101 -7.33547,-5.1242401 -5.003289,-3.56506 -9.901547,-4.09344 -18.467607,-1.99264 -3.576976,0.87724 -7.206824,1.59474 -8.06669,1.59474 -0.859867,0 -2.528917,0.50343 -3.708818,1.11879 -1.179899,0.61536 -3.341346,1.1214501 -4.803323,1.1234501 -2.548162,0.004 -3.344312,-0.4118201 -12.071614,-6.3159001 -2.493402,-1.68681 -4.6683352,-2.55785 -6.0616472,-2.49907 z m 46.9609592,6.57273 c -1.00552,0 -1.828313,0.33737 -1.828313,0.7493 0,0.41193 1.031227,0.7488 2.291334,0.7488 1.336683,0 2.098371,-0.31184 1.82831,-0.7488 -0.254587,-0.41193 -1.285811,-0.7493 -2.291331,-0.7493 z m 1.931665,3.6762601 c -1.058207,0.0955 -2.896296,0.54354 -3.188436,1.52962 0.108096,2.41794 3.012723,2.5246 4.67155,2.92075 1.174112,0.28772 3.744473,-0.96236 3.744473,-1.82108 0,-1.40007 -3.101343,-2.65312 -5.227587,-2.62929 z m 1.190625,0.85059 c 0.853027,-0.0215 1.076571,0.22173 0.876432,0.80409 -0.195675,0.56937 -1.249892,1.02234 -2.342494,1.00614 -1.205137,0.0927 -1.954212,0.26737 -2.090827,-0.99219 0.376131,-1.01449 2.634956,-0.7914 3.556889,-0.81804 z m -44.482041,7.54218 c -0.109167,0.0363 -0.130585,0.41494 -0.141076,1.16168 -0.01251,0.89185 0.735584,2.48659 1.66243,3.54397 2.214087,2.52586 3.198601,2.4921 1.531173,-0.0527 -0.961437,-1.46734 -1.066093,-2.08462 -0.391707,-2.30942 0.506198,-0.16873 0.920358,-0.65716 0.920358,-1.0852 0,-0.48955 -0.394338,-0.45106 -1.062985,0.10387 -0.839676,0.69687 -1.228111,0.59841 -1.849498,-0.46974 -0.362262,-0.62272 -0.559525,-0.92878 -0.668695,-0.89245 z m 22.918499,0.80305 c -1.111144,-0.0419 -1.555596,0.43128 -2.619478,1.66811 -1.108091,1.28824 -1.738397,2.97871 -1.738397,4.66277 0,3.02865 1.735989,3.20534 2.082043,0.21187 0.578012,-4.99991 0.848329,-5.39382 3.385325,-4.93097 1.318239,0.2405 3.155075,0.65807 4.081921,0.92811 0.964689,0.28107 1.685168,0.16573 1.685168,-0.27026 0,-0.41889 -1.745472,-1.18062 -3.878831,-1.69241 -1.424268,-0.34167 -2.331067,-0.55211 -2.997751,-0.57722 z m -10.116695,4.42453 c -0.111707,0.008 -0.03898,0.29771 0.189653,0.89814 0.28126,0.73864 0.700093,1.15457 0.930691,0.92397 0.230597,-0.2306 2.61e-4,-0.83502 -0.511596,-1.34307 -0.323615,-0.3212 -0.521867,-0.48532 -0.608748,-0.47904 z m -3.978053,0.67903 c -0.989079,0 -1.497581,0.49915 -1.497581,1.46968 0,0.80841 -0.654691,3.25206 -1.454693,5.43016 -1.007702,2.74358 -1.410173,5.57038 -1.310513,9.20254 0.133956,4.882 0.03049,5.25903 -1.502751,5.47718 -3.744563,0.53278 -6.1956952,-2.94511 -3.596164,-5.10253 1.50149,-1.24612 1.428354,-2.99568 -0.125058,-2.99568 -0.686548,0 -1.035224,0.21277 -0.775144,0.47284 0.260077,0.26008 0.01934,1.12028 -0.534853,1.91151 -1.0272422,1.46659 -0.9505022,8.52091 0.15348,14.09268 0.450834,2.27534 0.549801,1.99872 0.749824,-2.09703 0.252198,-5.16407 1.425503,-6.51002 3.801319,-4.35994 1.790316,1.62021 2.102725,1.54261 2.655136,-0.65836 0.574646,-2.28957 2.210292,-2.38657 5.58157,-0.33124 1.385237,0.84453 2.666688,1.38732 2.847888,1.20612 0.475607,-0.47561 -3.522046,-3.49591 -4.627107,-3.49591 -1.111597,0 -3.000616,-2.10811 -2.414323,-2.69441 0.226253,-0.22625 2.244709,0.4556 4.485515,1.51567 6.132227,2.90101 6.726132,2.32036 1.284158,-1.25573 -3.412855,-2.2427 -4.868457,-3.67219 -4.927346,-4.83899 -0.06893,-1.36561 0.150776,-1.53072 1.252636,-0.94102 0.734906,0.39331 1.951918,1.49182 2.704745,2.44067 0.752827,0.94886 2.885551,2.55576 4.739246,3.57136 2.756532,1.51024 3.412418,2.27908 3.601328,4.22145 0.293825,3.02105 2.401787,3.06016 4.11448,0.076 1.161627,-2.02402 1.132499,-2.16489 -0.822174,-4.01578 l -2.025716,-1.91771 2.996199,0.48679 c 5.20309,0.84543 5.39876,0.98686 5.953644,4.30775 0.290677,1.73969 0.574649,3.75715 0.630968,4.48293 0.05632,0.72579 0.451855,1.19567 0.878498,1.04438 0.426646,-0.15129 0.67754,-1.49764 0.557591,-2.99207 -0.216675,-2.69951 -0.202091,-2.71438 2.24689,-2.2412 2.43813,0.47109 2.450025,0.45973 1.10536,-1.06144 -1.659766,-1.87762 -1.272159,-2.14489 4.077269,-2.81016 4.40581,-0.54791 6.025827,0.21042 4.014742,1.87947 -1.240954,1.0299 -1.462672,4.27594 -0.406175,5.94589 0.528728,0.83574 0.791959,0.57813 1.148765,-1.12345 1.641682,-7.82903 2.360457,-8.78234 7.324619,-9.71362 2.470428,-0.46346 2.861734,-0.32466 3.431831,1.21647 l 0.643888,1.73994 0.88832,-1.66088 c 0.783957,-1.46483 0.667604,-1.76175 -0.988055,-2.51612 -1.917721,-0.87376 -1.984404,-2.39751 -0.07286,-1.66398 0.579681,0.22245 1.663772,0.0232 2.409672,-0.44287 1.17511,-0.73426 1.106681,-0.78763 -0.515731,-0.39998 l -1.872753,0.447 2.085144,-1.77043 c 2.073043,-1.76051 2.076413,-1.77831 0.589627,-3.12384 -1.813989,-1.64164 -3.798218,-1.05477 -3.798218,1.12345 0,3.02991 -2.731878,5.73116 -6.778397,6.70191 -3.660439,0.87812 -6.091905,0.61102 -3.095419,-0.34003 1.509707,-0.47916 2.693921,-3.13412 1.677935,-3.76204 -0.31119,-0.19232 -1.288751,0.48128 -2.17196,1.49706 -0.883211,1.01578 -1.967775,1.84692 -2.41019,1.84692 -0.482015,0 -0.599472,0.64473 -0.293521,1.60869 0.468802,1.47707 0.312008,1.56897 -1.915646,1.12344 -1.334379,-0.26688 -2.93074,-0.48524 -3.547587,-0.48524 -0.887698,0 -0.936214,-0.22338 -0.232545,-1.07125 0.709949,-0.85544 0.587262,-1.23295 -0.608229,-1.87276 -0.823383,-0.44066 -2.212927,-0.80098 -3.088185,-0.80098 -0.875255,0 -1.402868,-0.30551 -1.172022,-0.67903 0.230846,-0.37352 -0.317071,-0.48623 -1.218012,-0.25063 l -1.638144,0.4284 1.687753,-2.37092 c 1.308619,-1.83779 1.438278,-2.3704 0.576191,-2.3704 -0.611621,0 -1.227793,-0.34767 -1.369425,-0.77256 -0.173244,-0.51974 -1.068763,-0.48983 -2.736268,0.0915 -3.186654,1.11087 -7.893936,0.56337 -11.923302,-1.38699 -1.750711,-0.84739 -3.183268,-1.27048 -3.183268,-0.94 0,0.33047 0.505547,0.79487 1.123445,1.03198 0.6179,0.23711 1.112342,1.03145 1.098642,1.76527 -0.04444,2.37958 -2.970879,-1.92125 -2.970879,-4.36615 0,-1.66462 -0.345802,-2.16369 -1.4981,-2.16369 z m -7.965921,0.28216 c -0.03179,-0.005 -0.05906,0.003 -0.08062,0.0248 -0.172427,0.17243 0.06317,1.01619 0.522967,1.87533 1.175166,2.19582 1.67757,1.95212 0.645438,-0.31316 -0.411263,-0.90262 -0.86524,-1.55384 -1.087789,-1.58698 z m 56.274601,2.71353 c -0.617889,0 -1.123447,0.33685 -1.123447,0.74878 0,0.41194 0.505558,0.74932 1.123447,0.74932 0.6179,0 1.123445,-0.33738 1.123445,-0.74932 0,-0.41193 -0.505545,-0.74878 -1.123445,-0.74878 z m -59.290439,0.28525 c -0.06748,-0.002 -0.1548262,0.029 -0.2609632,0.0946 -0.407215,0.25167 -0.740524,0.77458 -0.740524,1.1622 0,1.07734 0.536654,0.84019 1.0345602,-0.45734 0.191829,-0.49992 0.169365,-0.79434 -0.03307,-0.79943 z m 10.937836,0.46353 c 0.436242,0 0.793231,0.33738 0.793231,0.74932 0,0.41193 -0.148556,0.74878 -0.330211,0.74878 -0.181657,0 -0.538644,-0.33685 -0.793234,-0.74878 -0.254587,-0.41194 -0.106029,-0.74932 0.330214,-0.74932 z m -8.194334,2.2469 c -0.41193,0 -0.749308,0.50555 -0.749308,1.12344 0,0.6179 0.3151,1.12345 0.700217,1.12345 1.329494,0 4.749181,-1.54088 4.336169,-1.95389 -0.227814,-0.22781 -1.116962,-0.0381 -1.976107,0.42168 -1.037703,0.55538 -1.562179,0.57603 -1.562179,0.061 0,-0.42642 -0.33686,-0.77566 -0.748792,-0.77566 z m 14.421342,0.7493 c 0.6179,0 1.542881,0.50555 2.055691,1.12345 0.758306,0.9137 0.722497,1.12345 -0.191204,1.12345 -0.6179,0 -1.542878,-0.50555 -2.055688,-1.12345 -0.758307,-0.9137 -0.722503,-1.12345 0.191201,-1.12345 z m -8.124568,0.13437 c 0.05968,0.009 0.125648,0.0466 0.194304,0.11523 0.274622,0.27462 0.274622,0.72377 0,0.99839 -0.274621,0.27462 -0.49971,0.05 -0.49971,-0.49919 0,-0.41191 0.126357,-0.64135 0.305406,-0.61443 z m 4.715475,1.67018 c 0.07024,-0.002 0.144971,0.0199 0.222208,0.0677 0.411932,0.25459 0.748792,0.94844 0.748792,1.54203 0,0.59358 -0.33686,1.07952 -0.748792,1.07952 -0.411932,0 -0.749308,-0.69437 -0.749308,-1.54254 0,-0.68915 0.222713,-1.1388 0.5271,-1.1467 z m 8.086328,0.44235 c 0.205965,0 0.374137,0.16816 0.374137,0.37413 0,0.20596 -0.168172,0.37466 -0.374137,0.37466 -0.205967,0 -0.374655,-0.1687 -0.374655,-0.37466 0,-0.20597 0.168688,-0.37413 0.374655,-0.37413 z m 8.238773,3.74447 c 0.205965,0 0.374137,0.16868 0.374137,0.37465 0,0.20598 -0.168172,0.37466 -0.374137,0.37466 -0.205965,0 -0.374655,-0.16868 -0.374655,-0.37466 0,-0.20597 0.16869,-0.37465 0.374655,-0.37465 z m 2.477884,1.50947 c 0.964348,-0.006 1.524709,0.31978 1.26659,0.73742 -0.55662,0.90063 -0.478608,0.90063 -1.872237,0 -0.903833,-0.5841 -0.785662,-0.72842 0.605647,-0.73742 z m -25.048599,0.99684 c 0.06811,0.0103 0.149088,0.12528 0.238745,0.34933 0.216355,0.54066 0.189447,1.18669 -0.05943,1.43557 -0.248875,0.24887 -0.425775,-0.19335 -0.393255,-0.98288 0.02246,-0.54532 0.100415,-0.81921 0.21394,-0.80202 z m -2.894396,0.48989 c -0.205967,0 -0.374655,0.16817 -0.374655,0.37414 0,0.20597 0.168688,0.37465 0.374655,0.37465 0.205965,0 0.374653,-0.16868 0.374653,-0.37465 0,-0.20597 -0.168688,-0.37414 -0.374653,-0.37414 z m 41.134956,5.58571 c 0.05351,-0.0119 0.114906,0.0577 0.179834,0.21859 0.207772,0.51491 0.207772,1.35732 0,1.87224 -0.207774,0.51491 -0.377756,0.094 -0.377756,-0.93586 0,-0.70799 0.08019,-1.1287 0.197922,-1.15497 z m 4.427119,3.73362 c -0.136644,-0.007 -0.335031,0.0353 -0.584978,0.13126 -0.639294,0.24532 -1.162719,0.57863 -1.162719,0.74052 0,0.6066 1.427234,0.26571 1.867069,-0.44597 0.163997,-0.26535 0.108368,-0.41416 -0.119372,-0.42581 z m -8.885761,3.52692 c -0.687581,-0.0119 -1.339112,0.46181 -2.74247,1.5322 -2.533269,1.93222 -2.577081,1.93732 -4.390429,0.54364 -2.589223,-1.98999 -3.766167,-1.79787 -7.24607,1.1808 -3.301595,2.82604 -3.947562,3.10958 -3.947562,1.73323 0,-0.48837 -0.733171,-1.66814 -1.628841,-2.62154 -2.353591,-2.50529 -5.297493,-2.24997 -8.081161,0.70073 -1.918901,2.03403 -2.415884,2.24982 -3.022555,1.31103 -0.645334,-0.99862 -0.726054,-0.99862 -0.726054,0 0,1.84183 1.140021,3.07736 2.395205,2.59571 0.646279,-0.24801 1.411888,-0.0681 1.701188,0.39997 0.289301,0.4681 1.081916,0.618 1.761133,0.33332 4.957262,-2.07804 5.405218,-2.1599 6.857979,-1.25264 2.069864,1.29266 3.9957,1.14466 6.071981,-0.46716 2.588813,-2.0097 5.789345,-2.38951 8.648049,-1.02629 2.28808,1.09111 2.575523,1.07883 3.953764,-0.16847 0.817533,-0.73985 2.008746,-1.14507 2.646868,-0.9002 0.638122,0.24487 1.997212,0.0637 3.020486,-0.40256 1.53163,-0.69786 2.123508,-0.60963 3.347601,0.49816 1.216945,1.10132 1.693682,1.17416 2.624645,0.40153 0.8773,-0.72813 1.380916,-0.74185 2.201934,-0.0605 0.87458,0.72583 0.991206,0.60459 0.655256,-0.68006 -0.87608,-3.35016 -5.227769,-4.74671 -8.233089,-2.6417 -1.437214,1.00666 -1.835058,0.99116 -3.827674,-0.15245 -0.948587,-0.54441 -1.5054,-0.84752 -2.040184,-0.85679 z m -34.507455,1.38389 c 0.376687,0 0.07483,0.67424 -0.670759,1.4981 -0.745588,0.82387 -1.474962,1.4981 -1.620573,1.4981 -0.145613,0 0.156247,-0.67423 0.670759,-1.4981 0.514511,-0.82386 1.243885,-1.4981 1.620573,-1.4981 z m 10.232966,0.0372 c 0.365541,-0.004 0.501724,0.37048 0.212392,1.12448 -0.354976,0.92504 -0.06191,1.06521 1.439704,0.68832 1.036994,-0.26026 2.09102,-0.14024 2.342493,0.26666 0.264274,0.42762 -0.139512,0.58327 -0.957048,0.36948 -0.777943,-0.20344 -1.640943,-0.003 -1.917713,0.44442 -0.607825,0.98348 -1.194861,1.00864 -2.613276,0.1111 -0.891146,-0.5639 -0.907579,-0.88248 -0.0956,-1.86086 0.628735,-0.75756 1.223513,-1.13974 1.58905,-1.1436 z m 14.935523,0.75551 c 0.181001,0 0.361884,0.0689 0.499195,0.20619 0.274621,0.27461 0.05005,0.49919 -0.499195,0.49919 -0.549241,0 -0.773814,-0.22458 -0.499195,-0.49919 0.137311,-0.13732 0.318196,-0.20619 0.499195,-0.20619 z m -38.5283972,0.20102 c -0.119586,-0.007 -0.263589,0.0342 -0.418063,0.1297 -0.411932,0.25459 -0.748792,0.79989 -0.748792,1.21182 0,0.41193 0.33686,0.54086 0.748792,0.28628 0.411933,-0.25459 0.749308,-0.79988 0.749308,-1.21181 0,-0.25745 -0.131934,-0.40423 -0.331245,-0.41599 z"
       sodipodi:nodetypes="sssssssssssssssssssccssssssssssscccsssscccssssscssssssscccsccscccsscssssssssssssssssssssssssssssssssssssssssssssscccssssssssssscccssscccsssssssssssssssccsssssssssssssssssssssssssssssssssssssssssssssssssssssssssssssscsscssssssssssssssssssssssssssssssscssssssssssssssssssssssssssssssssssssss" />
  </g>
</svg>
